<svg width="75" height="76" xmlns="http://www.w3.org/2000/svg" xmlns:xlink="http://www.w3.org/1999/xlink" xml:space="preserve" overflow="hidden"><g transform="translate(-446 -163)"><path d="M578.906 163.281 574.219 163.281 574.219 216.406 627.344 216.406 627.344 211.719 578.906 211.719Z" stroke="#FFFFFF" stroke-width="0.78125" fill="#FFFFFF" transform="matrix(1 0 0 1.01333 -117.281 8.625)"/><path d="M583.594 179.688 592.188 179.688 592.188 207.031 583.594 207.031Z" stroke="#FFFFFF" stroke-width="0.78125" fill="#FFFFFF" transform="matrix(1 0 0 1.01333 -117.281 8.625)"/><path d="M595.312 163.281 603.906 163.281 603.906 207.031 595.312 207.031Z" stroke="#FFFFFF" stroke-width="0.78125" fill="#FFFFFF" transform="matrix(1 0 0 1.01333 -117.281 8.625)"/><path d="M607.031 179.688 615.625 179.688 615.625 207.031 607.031 207.031Z" stroke="#FFFFFF" stroke-width="0.78125" fill="#FFFFFF" transform="matrix(1 0 0 1.01333 -117.281 8.625)"/><path d="M618.75 192.969 627.344 192.969 627.344 207.031 618.75 207.031Z" stroke="#FFFFFF" stroke-width="0.78125" fill="#FFFFFF" transform="matrix(1 0 0 1.01333 -117.281 8.625)"/></g></svg>