<svg width="75" height="75" xmlns="http://www.w3.org/2000/svg" xmlns:xlink="http://www.w3.org/1999/xlink" xml:space="preserve" overflow="hidden"><g transform="translate(-905 -68)"><path d="M967.812 123C964.922 116.594 957.812 114.328 957.344 95.3438L957.344 95.4219C957.109 89.9531 953.906 85.3438 949.375 83 949.531 82.4531 949.609 81.9062 949.609 81.3594 949.609 77.4531 946.484 74.3281 942.578 74.3281 938.672 74.3281 935.547 77.4531 935.547 81.3594 935.547 81.9062 935.625 82.5312 935.781 83 931.25 85.3438 928.047 90.0312 927.812 95.4219L927.812 95.3438C927.344 114.328 920.234 116.594 917.344 123 916.562 124.016 916.094 125.031 916.094 126.203 915.938 132.062 927.812 136.75 942.5 136.75 957.188 136.75 969.062 132.062 969.062 126.203 969.062 125.109 968.672 124.016 967.812 123ZM942.5 77.375C944.688 77.375 946.406 79.0938 946.406 81.2812 946.406 81.4375 946.406 81.5938 946.328 81.8281 945.156 81.4375 943.828 81.2812 942.5 81.2812 941.172 81.2812 939.844 81.4375 938.672 81.8281 938.672 81.6719 938.594 81.5156 938.594 81.2812 938.594 79.0938 940.312 77.375 942.5 77.375ZM942.5 132.062C928.828 132.062 921.406 127.922 920.625 126.203 921.25 124.719 927.266 121.203 938.281 120.5 937.969 121.125 937.734 121.906 937.734 122.688 937.734 125.266 939.844 127.375 942.5 127.375 945.156 127.375 947.266 125.266 947.266 122.688 947.266 121.906 947.031 121.125 946.719 120.5 957.734 121.203 963.75 124.719 964.375 126.203 963.594 127.922 956.172 132.062 942.5 132.062Z" stroke="#FFFFFF" stroke-width="0.781245" fill="#FFFFFF"/></g></svg>