<svg width="75" height="75" xmlns="http://www.w3.org/2000/svg" xmlns:xlink="http://www.w3.org/1999/xlink" xml:space="preserve" overflow="hidden"><g transform="translate(-102 -68)"><path d="M158.953 104.328C156.219 107.141 153.641 108.938 148.016 109.562 149.5 108.078 151.219 106.594 152.703 104.797 153.328 104.094 154.5 102.531 154.5 102.453 155.828 100.266 156.609 97.7656 156.609 95.0312L156.609 84.875 162.078 84.875 162.078 96.75C162.156 96.9062 162.312 100.812 158.953 104.328ZM120.125 104.328C116.688 100.812 116.844 96.9062 116.844 96.75L116.844 84.7969 122.312 84.7969 122.312 94.9531C122.312 97.6875 123.094 100.188 124.422 102.375 124.422 102.453 125.594 104.094 126.219 104.719 127.781 106.516 129.422 108 130.906 109.484 125.438 108.859 122.781 107.062 120.125 104.328ZM166.844 96.5156 166.844 80.1094 156.688 80.1094 156.688 74.6406 139.5 74.6406 122.312 74.6406 122.312 80.1094 112.156 80.1094 112.156 96.4375C112.156 97.2188 112.156 102.609 116.609 107.375 120.906 111.906 126.141 114.25 135.281 114.406 135.984 115.578 136.375 116.906 136.375 118.312L136.375 128.469 132.469 128.469C130.75 128.469 129.344 129.875 129.344 131.594L125.438 131.594C123.719 131.594 122.312 133 122.312 134.719L122.312 136.281 156.688 136.281 156.688 134.719C156.688 133 155.281 131.594 153.562 131.594L149.656 131.594C149.656 129.875 148.25 128.469 146.531 128.469L142.625 128.469 142.625 118.391C142.625 116.984 143.016 115.656 143.719 114.484 152.859 114.328 158.094 111.906 162.391 107.453 166.844 102.766 166.844 97.2969 166.844 96.5156Z" fill="#FFFFFF"/></g></svg>