<svg width="75" height="75" xmlns="http://www.w3.org/2000/svg" xmlns:xlink="http://www.w3.org/1999/xlink" xml:space="preserve" overflow="hidden"><g transform="translate(-102 -377)"><path d="M152 400.438C152 407.341 146.404 412.938 139.5 412.938 132.596 412.938 127 407.341 127 400.438 127 393.534 132.596 387.938 139.5 387.938 146.404 387.938 152 393.534 152 400.438Z" stroke="#FFFFFF" stroke-width="0.781245" fill="#FFFFFF"/><path d="M164.5 441.062 164.5 428.562C164.5 426.688 163.562 424.812 162 423.562 158.562 420.75 154.188 418.875 149.813 417.625 146.688 416.688 143.25 416.062 139.5 416.062 136.062 416.062 132.625 416.688 129.187 417.625 124.813 418.875 120.438 421.062 117 423.562 115.438 424.812 114.5 426.688 114.5 428.562L114.5 441.062 164.5 441.062Z" stroke="#FFFFFF" stroke-width="0.781245" fill="#FFFFFF"/></g></svg>