<svg width="76" height="76" xmlns="http://www.w3.org/2000/svg" xmlns:xlink="http://www.w3.org/1999/xlink" xml:space="preserve" overflow="hidden"><g transform="translate(-592 -312)"><path d="M659.688 371.85 649.792 361.954C648.446 360.608 646.625 360.133 644.883 360.45L641.4 356.967C644.487 353.008 646.308 347.942 646.308 342.558 646.308 329.496 635.621 318.808 622.558 318.808 609.496 318.808 598.808 329.496 598.808 342.558 598.808 355.621 609.496 366.308 622.558 366.308 627.942 366.308 632.929 364.487 636.967 361.4L640.45 364.883C640.133 366.625 640.608 368.446 641.954 369.792L651.85 379.688C652.958 380.796 654.383 381.35 655.808 381.35 657.233 381.35 658.658 380.796 659.767 379.688 661.825 377.471 661.825 373.987 659.688 371.85ZM622.479 361.479C612.029 361.479 603.479 352.929 603.479 342.479 603.479 332.029 612.029 323.479 622.479 323.479 632.929 323.479 641.479 332.029 641.479 342.479 641.479 352.929 632.929 361.479 622.479 361.479Z" stroke="#FFFFFF" stroke-width="3.16667" fill="#FFFFFF"/></g></svg>